<mxfile host="app.diagrams.net" modified="2023-04-12T00:19:54.927Z" agent="Mozilla/5.0 (Windows NT 10.0; Win64; x64) AppleWebKit/537.36 (KHTML, like Gecko) Chrome/112.0.0.0 Safari/537.36" version="21.1.6" etag="3mePeNXOTmSt8eA0oMrt" type="github">
  <diagram name="페이지-1" id="VDJijrkGryMMXAM-YyxT">
    <mxGraphModel>
      <root>
        <mxCell id="0" />
        <mxCell id="1" parent="0" />
      </root>
    </mxGraphModel>
  </diagram>
</mxfile>
